<svg width="35" height="31" viewBox="0 0 35 31" fill="none" xmlns="http://www.w3.org/2000/svg">
<path d="M17 0.71875C25.0273 0.71875 31.5312 7.22266 31.5312 15.25C31.5312 23.2773 25.0273 29.7812 17 29.7812C8.97266 29.7812 2.46875 23.2773 2.46875 15.25C2.46875 7.22266 8.97266 0.71875 17 0.71875ZM24.0898 19.1172L20.2812 15.25L24.0898 11.4414C24.3828 11.207 24.3828 10.7383 24.0898 10.4453L21.8047 8.16016C21.5117 7.86719 21.043 7.86719 20.8086 8.16016L17 11.9688L13.1914 8.16016C12.8984 7.86719 12.4297 7.86719 12.1953 8.16016L9.85156 10.4453C9.55859 10.7383 9.55859 11.207 9.85156 11.4414L13.7188 15.25L9.85156 19.0586C9.55859 19.3516 9.55859 19.8203 9.85156 20.0547L12.1367 22.3984C12.4297 22.6914 12.8984 22.6914 13.1328 22.3984L17 18.5312L20.8086 22.3984C21.043 22.6914 21.5117 22.6914 21.8047 22.3984L24.0898 20.1133C24.3828 19.8203 24.3828 19.3516 24.0898 19.1172Z" fill="#C3F25C"/>
</svg>
