<svg width="36" height="35" viewBox="0 0 36 35" fill="none" xmlns="http://www.w3.org/2000/svg">
<path d="M31.5352 21.2656C31.8281 21.4414 31.9453 21.793 31.8867 22.0859C31.1836 24.1953 30.1289 26.0703 28.6641 27.6523C28.4297 27.8867 28.0781 27.9453 27.7852 27.7695L25.2656 26.3633C24.2109 27.2422 23.0391 27.9453 21.75 28.4141V31.2852C21.75 31.5781 21.5156 31.8711 21.1641 31.9883C19.1133 32.3984 16.9453 32.457 14.7773 31.9883C14.4844 31.8711 14.25 31.5781 14.25 31.2852V28.4141C12.9023 27.9453 11.7305 27.2422 10.6758 26.3633L8.15625 27.7695C7.86328 27.9453 7.51172 27.8867 7.27734 27.6523C5.87109 26.0703 4.75781 24.1953 4.11328 22.0859C3.99609 21.793 4.11328 21.4414 4.40625 21.2656L6.92578 19.8594C6.69141 18.4531 6.69141 17.1055 6.92578 15.6992L4.40625 14.293C4.11328 14.1172 3.99609 13.7656 4.11328 13.4727C4.75781 11.3633 5.87109 9.48828 7.27734 7.90625C7.51172 7.67188 7.86328 7.61328 8.15625 7.78906L10.6758 9.25391C11.7305 8.31641 12.9023 7.61328 14.25 7.14453V4.27344C14.25 3.98047 14.4258 3.6875 14.7773 3.62891C16.8281 3.16016 18.9961 3.10156 21.1641 3.62891C21.5156 3.6875 21.75 3.98047 21.75 4.27344V7.14453C23.0391 7.61328 24.2109 8.31641 25.2656 9.19531L27.7852 7.78906C28.0781 7.61328 28.4297 7.67188 28.6641 7.90625C30.0703 9.48828 31.1836 11.3633 31.8281 13.4727C31.9453 13.7656 31.8281 14.1172 31.5352 14.293L29.0156 15.6992C29.3086 17.1055 29.3086 18.4531 29.0156 19.8594L31.5352 21.2656ZM18 22.4375C20.5781 22.4375 22.6875 20.3867 22.6875 17.75C22.6875 15.1719 20.5781 13.0625 18 13.0625C15.3633 13.0625 13.3125 15.1719 13.3125 17.75C13.3125 20.3867 15.3633 22.4375 18 22.4375Z" fill="#C3F25C"/>
</svg>
