<svg width="35" height="35" viewBox="0 0 35 35" fill="none" xmlns="http://www.w3.org/2000/svg">
<path d="M30.625 22.9062V29.4688V29.5273C30.625 30.2891 29.9805 30.9336 29.2188 30.9336V30.875H22.6562C21.3672 30.875 20.7227 29.4102 21.6602 28.4727L23.7695 26.3633L17.5 20.0938L11.1719 26.3633L13.3398 28.4727C14.2188 29.4102 13.5742 30.875 12.3438 30.875H5.78125H5.72266C4.96094 30.875 4.31641 30.2891 4.31641 29.5273C4.31641 29.5273 4.375 29.5273 4.375 29.4688V22.9062C4.375 21.6758 5.83984 21.0312 6.77734 21.9102L8.88672 24.0781L15.1562 17.75L8.88672 11.4805L6.77734 13.5898C5.83984 14.5273 4.375 13.8828 4.375 12.5938V6.03125C4.375 5.26953 4.96094 4.625 5.72266 4.625C5.72266 4.625 5.72266 4.625 5.78125 4.625H12.3438C13.5742 4.625 14.2188 6.14844 13.3398 7.02734L11.1719 9.19531L17.5 15.4648L23.7695 9.19531L21.6602 7.02734C20.7227 6.14844 21.3672 4.625 22.6562 4.625H29.2188C29.9805 4.625 30.625 5.26953 30.625 6.03125V12.5938C30.625 13.8828 29.1016 14.5273 28.2227 13.5898L26.0547 11.4805L19.7852 17.75L26.0547 24.0781L28.2227 21.9688C29.1016 21.0312 30.625 21.6758 30.625 22.9062Z" fill="#C3F25C"/>
</svg>
